<?xml version="1.0" encoding="UTF-8" standalone="no"?>
<!-- Created with Inkscape (http://www.inkscape.org/) -->

<svg
   width="10"
   height="10"
   viewBox="0 0 10 10"
   version="1.1"
   id="svg1"
   sodipodi:docname="10-round-outlines.svg"
   inkscape:version="1.4 (e7c3feb100, 2024-10-09)"
   inkscape:export-filename="export/Page 1.svg"
   inkscape:export-xdpi="96"
   inkscape:export-ydpi="96"
   xmlns:inkscape="http://www.inkscape.org/namespaces/inkscape"
   xmlns:sodipodi="http://sodipodi.sourceforge.net/DTD/sodipodi-0.dtd"
   xmlns="http://www.w3.org/2000/svg"
   xmlns:svg="http://www.w3.org/2000/svg">
  <sodipodi:namedview
     id="namedview1"
     pagecolor="#ffffff"
     bordercolor="#000000"
     borderopacity="0.25"
     inkscape:showpageshadow="2"
     inkscape:pageopacity="0.0"
     inkscape:pagecheckerboard="0"
     inkscape:deskcolor="#d1d1d1"
     inkscape:document-units="px"
     showgrid="false"
     showborder="true"
     labelstyle="default"
     inkscape:zoom="1.25"
     inkscape:cx="338.8"
     inkscape:cy="-2.4"
     inkscape:window-width="1916"
     inkscape:window-height="1028"
     inkscape:window-x="0"
     inkscape:window-y="0"
     inkscape:window-maximized="0"
     inkscape:current-layer="svg1"
     showguides="true">
    <inkscape:page
       x="0"
       y="0"
       width="10"
       height="10"
       id="page8"
       margin="0"
       bleed="0" />
    <inkscape:page
       x="20"
       y="0"
       width="10"
       height="10"
       id="page173"
       margin="0"
       bleed="0" />
    <inkscape:page
       x="40"
       y="0"
       width="10"
       height="10"
       id="page174"
       margin="0"
       bleed="0" />
    <inkscape:page
       x="60"
       y="0"
       width="10"
       height="10"
       id="page175"
       margin="0"
       bleed="0" />
    <inkscape:page
       x="80"
       y="0"
       width="10"
       height="10"
       id="page176"
       margin="0"
       bleed="0" />
    <inkscape:page
       x="100"
       y="0"
       width="10"
       height="10"
       id="page177"
       margin="0"
       bleed="0" />
    <inkscape:page
       x="120"
       y="0"
       width="10"
       height="10"
       id="page178"
       margin="0"
       bleed="0" />
    <inkscape:page
       x="140"
       y="0"
       width="10"
       height="10"
       id="page179"
       margin="0"
       bleed="0" />
    <inkscape:page
       x="160"
       y="0"
       width="10"
       height="10"
       id="page180"
       margin="0"
       bleed="0" />
    <inkscape:page
       x="180"
       y="0"
       width="10"
       height="10"
       id="page181"
       margin="0"
       bleed="0" />
    <inkscape:page
       x="200"
       y="0"
       width="10"
       height="10"
       id="page182"
       margin="0"
       bleed="0" />
    <inkscape:page
       x="220"
       y="0"
       width="10"
       height="10"
       id="page221"
       margin="0"
       bleed="0" />
    <inkscape:page
       x="240"
       y="0"
       width="10"
       height="10"
       id="page233"
       margin="0"
       bleed="0" />
    <inkscape:page
       x="260"
       y="0"
       width="10"
       height="10"
       id="page234"
       margin="0"
       bleed="0" />
    <inkscape:page
       x="280"
       y="0"
       width="10"
       height="10"
       id="page235"
       margin="0"
       bleed="0" />
    <inkscape:page
       x="300"
       y="0"
       width="10"
       height="10"
       id="page236"
       margin="0"
       bleed="0" />
    <inkscape:page
       x="320"
       y="0"
       width="10"
       height="10"
       id="page237"
       margin="0"
       bleed="0" />
    <inkscape:page
       x="340"
       y="0"
       width="10"
       height="10"
       id="page238"
       margin="0"
       bleed="0" />
    <inkscape:page
       x="360"
       y="0"
       width="10"
       height="10"
       id="page239"
       margin="0"
       bleed="0" />
    <inkscape:page
       x="380"
       y="0"
       width="10"
       height="10"
       id="page1"
       margin="0"
       bleed="0" />
    <inkscape:page
       x="400"
       y="0"
       width="10"
       height="10"
       id="page2"
       margin="0"
       bleed="0" />
    <inkscape:page
       x="420"
       y="0"
       width="10"
       height="10"
       id="page3"
       margin="0"
       bleed="0" />
    <inkscape:grid
       id="grid16"
       units="px"
       originx="0"
       originy="0"
       spacingx="1"
       spacingy="1"
       empcolor="#0099e5"
       empopacity="0.30196078"
       color="#0099e5"
       opacity="0.14901961"
       empspacing="5"
       enabled="true"
       visible="false" />
    <inkscape:grid
       id="grid17"
       units="px"
       originx="0"
       originy="0"
       spacingx="0.5"
       spacingy="0.5"
       empcolor="#0099e5"
       empopacity="0.30196078"
       color="#0099e5"
       opacity="0.14901961"
       empspacing="10"
       enabled="false"
       visible="false"
       dotted="true" />
    <inkscape:page
       x="440"
       y="0"
       width="10"
       height="10"
       id="page56"
       margin="0"
       bleed="0" />
    <inkscape:page
       x="460"
       y="0"
       width="10"
       height="10"
       id="page57"
       margin="0"
       bleed="0" />
    <inkscape:page
       x="480"
       y="0"
       width="10"
       height="10"
       id="page58"
       margin="0"
       bleed="0" />
    <inkscape:page
       x="500"
       y="0"
       width="10"
       height="10"
       id="page65"
       margin="0"
       bleed="0" />
    <inkscape:page
       x="520"
       y="0"
       width="10"
       height="10"
       id="page66"
       margin="0"
       bleed="0" />
    <inkscape:page
       x="540"
       y="0"
       width="10"
       height="10"
       id="page67"
       margin="0"
       bleed="0" />
    <inkscape:page
       x="560"
       y="0"
       width="10"
       height="10"
       id="page68"
       margin="0"
       bleed="0" />
    <inkscape:page
       x="580"
       y="0"
       width="10"
       height="10"
       id="page69"
       margin="0"
       bleed="0" />
    <inkscape:page
       x="600"
       y="0"
       width="10"
       height="10"
       id="page70"
       margin="0"
       bleed="0" />
    <inkscape:page
       x="620"
       y="0"
       width="10"
       height="10"
       id="page71"
       margin="0"
       bleed="0" />
    <inkscape:page
       x="640"
       y="0"
       width="10"
       height="10"
       id="page72"
       margin="0"
       bleed="0" />
    <inkscape:page
       x="660"
       y="0"
       width="10"
       height="10"
       id="page75"
       margin="0"
       bleed="0" />
    <inkscape:page
       x="680"
       y="0"
       width="10"
       height="10"
       id="page76"
       margin="0"
       bleed="0" />
  </sodipodi:namedview>
  <defs
     id="defs1">
    <inkscape:path-effect
       effect="fillet_chamfer"
       id="path-effect53"
       is_visible="true"
       lpeversion="1"
       nodesatellites_param="F,0,0,1,0,1,0,1 @ F,0,0,1,0,1,0,1 @ F,0,0,1,0,1,0,1 @ F,0,0,1,0,1,0,1 @ F,0,0,1,0,1,0,1 @ F,0,0,1,0,1,0,1 @ F,0,0,1,0,1,0,1 @ F,0,0,1,0,1,0,1"
       radius="1"
       unit="px"
       method="auto"
       mode="F"
       chamfer_steps="1"
       flexible="false"
       use_knot_distance="true"
       apply_no_radius="true"
       apply_with_radius="true"
       only_selected="false"
       hide_knots="false" />
    <rect
       x="32"
       y="76.800003"
       width="336"
       height="387.20078"
       id="rect48" />
    <inkscape:path-effect
       effect="fillet_chamfer"
       id="path-effect6"
       is_visible="true"
       lpeversion="1"
       nodesatellites_param="F,0,0,1,0,1.3229167,0,1 @ F,0,0,1,0,1.3229167,0,1 @ F,0,0,1,0,1.3229167,0,1 @ F,0,0,1,0,1.3229167,0,1 @ F,0,0,1,0,1.3229167,0,1 @ F,0,0,1,0,1.3229167,0,1 @ F,0,0,1,0,1.3229167,0,1 @ F,0,0,1,0,1.3229167,0,1 | F,0,0,1,0,1.3229167,0,1 @ F,0,0,1,0,1.3229167,0,1 @ F,0,0,1,0,1.3229167,0,1 @ F,0,0,1,0,1.3229167,0,1 @ F,0,0,1,0,1.3229167,0,1 @ F,0,0,1,0,1.3229167,0,1 @ F,0,0,1,0,1.3229167,0,1 @ F,0,0,1,0,1.3229167,0,1"
       radius="5"
       unit="px"
       method="bezier"
       mode="F"
       chamfer_steps="1"
       flexible="false"
       use_knot_distance="true"
       apply_no_radius="true"
       apply_with_radius="true"
       only_selected="false"
       hide_knots="false" />
    <rect
       x="32"
       y="76.800003"
       width="336"
       height="387.20078"
       id="rect49" />
  </defs>
  <g
     inkscape:groupmode="layer"
     id="layer3"
     inkscape:label="Round_Outline">
    <path
       id="circle8-3-6"
       style="display:inline;fill:#000000;fill-opacity:1;stroke:none;stroke-width:0.5;stroke-linecap:round;stroke-linejoin:round;stroke-dasharray:none;stroke-opacity:1;paint-order:markers stroke fill"
       d="M 383.19922 1.3007812 A 2 2 0 0 0 381.19922 3.3007812 A 2 2 0 0 0 383.19922 5.3007812 A 2 2 0 0 0 383.41211 5.2851562 L 383.86133 6.6933594 C 383.55185 6.9214783 383.34961 7.2875923 383.34961 7.6992188 C 383.34961 8.3866135 383.91221 8.9492188 384.59961 8.9492188 C 385.287 8.9492188 385.84961 8.3866135 385.84961 7.6992188 C 385.84961 7.0189778 385.29871 6.4607601 384.62109 6.4492188 L 384.17383 5.0410156 A 2 2 0 0 0 385.01367 4.140625 L 386.50391 4.4921875 C 386.55191 5.191948 387.13815 5.75 387.84961 5.75 C 388.59223 5.75 389.19922 5.1430139 389.19922 4.4003906 C 389.19922 3.6577674 388.59223 3.0507811 387.84961 3.0507812 C 387.35662 3.0507812 386.92304 3.3177404 386.6875 3.7148438 L 385.19531 3.3613281 A 2 2 0 0 0 385.19922 3.3007812 A 2 2 0 0 0 383.19922 1.3007812 z " />
    <path
       id="path140"
       style="stroke-linecap:round;stroke-linejoin:round;paint-order:markers stroke fill"
       d="M 365 1.25 A 2 2 0 0 0 363 3.25 A 2 2 0 0 0 363.63477 4.7070312 L 362.68945 6.0800781 C 362.5524 6.0280874 362.40468 6 362.25 6 C 361.56261 6 361 6.5626052 361 7.25 C 361 7.9373948 361.56261 8.5 362.25 8.5 C 362.93739 8.5 363.5 7.9373948 363.5 7.25 C 363.5 6.933154 363.37978 6.6428183 363.18359 6.421875 L 364.13086 5.046875 A 2 2 0 0 0 365 5.25 A 2 2 0 0 0 365.86914 5.046875 L 366.81641 6.421875 C 366.62022 6.6428183 366.5 6.933154 366.5 7.25 C 366.5 7.9373948 367.06261 8.5 367.75 8.5 C 368.43739 8.5 369 7.9373948 369 7.25 C 369 6.5626052 368.43739 6 367.75 6 C 367.59532 6 367.4476 6.0280874 367.31055 6.0800781 L 366.36523 4.7070312 A 2 2 0 0 0 367 3.25 A 2 2 0 0 0 365 1.25 z " />
    <path
       id="path101"
       style="stroke-linecap:round;stroke-linejoin:round;paint-order:fill markers stroke"
       d="M 104.9668 1.1503906 C 104.62484 1.1679251 104.34961 1.4547357 104.34961 1.8007812 C 104.34961 2.1579896 104.64279 2.4492188 105 2.4492188 C 105.35721 2.4492188 105.65039 2.1579896 105.65039 1.8007812 C 105.65039 1.443573 105.35721 1.1503906 105 1.1503906 C 104.98884 1.1503906 104.97783 1.149825 104.9668 1.1503906 z M 102.70703 2.0878906 C 102.5508 2.0952906 102.39574 2.1589446 102.27734 2.2773438 C 102.02475 2.5299279 102.02475 2.9446814 102.27734 3.1972656 C 102.52992 3.4498505 102.94468 3.4498498 103.19727 3.1972656 C 103.44985 2.9446807 103.44985 2.5299287 103.19727 2.2773438 C 103.06308 2.1431584 102.88409 2.0795039 102.70703 2.0878906 z M 107.23047 2.0878906 C 107.07424 2.0952905 106.92113 2.1589446 106.80273 2.2773438 C 106.55014 2.5299279 106.55014 2.9446814 106.80273 3.1972656 C 107.05531 3.4498498 107.47007 3.4498498 107.72266 3.1972656 C 107.97524 2.9446807 107.97524 2.5299279 107.72266 2.2773438 C 107.58847 2.1431584 107.40753 2.0795041 107.23047 2.0878906 z M 105 3.1992188 C 104.00944 3.1992188 103.19922 4.0094408 103.19922 5 C 103.19922 5.9905592 104.00944 6.8007812 105 6.8007812 C 105.99056 6.8007812 106.80078 5.9905592 106.80078 5 C 106.80078 4.0094408 105.99056 3.1992188 105 3.1992188 z M 105 3.8007812 C 105.6663 3.8007812 106.19922 4.3337049 106.19922 5 C 106.19922 5.6662951 105.6663 6.1992187 105 6.1992188 C 104.3337 6.1992188 103.80078 5.6662951 103.80078 5 C 103.80078 4.3337049 104.3337 3.8007813 105 3.8007812 z M 101.76758 4.3496094 C 101.42562 4.3671438 101.15039 4.6539544 101.15039 5 C 101.15039 5.3572084 101.44357 5.6503906 101.80078 5.6503906 C 102.15799 5.6503906 102.44922 5.3572084 102.44922 5 C 102.44922 4.6427916 102.15799 4.3496094 101.80078 4.3496094 C 101.78962 4.3496094 101.77861 4.3490437 101.76758 4.3496094 z M 108.16602 4.3496094 C 107.82418 4.3671438 107.55078 4.6539544 107.55078 5 C 107.55078 5.3572084 107.84201 5.6503906 108.19922 5.6503906 C 108.55643 5.6503906 108.84961 5.3572084 108.84961 5 C 108.84961 4.6427916 108.55643 4.3496094 108.19922 4.3496094 C 108.18806 4.3496094 108.17704 4.3490437 108.16602 4.3496094 z M 102.73633 6.6132812 C 102.56996 6.6132811 102.40352 6.6770971 102.27734 6.8027344 C 102.02475 7.0553193 102.02513 7.4681189 102.27734 7.7207031 C 102.52992 7.9732873 102.94272 7.9752422 103.19531 7.7226562 C 103.44789 7.470072 103.44789 7.0553186 103.19531 6.8027344 C 103.06902 6.6764423 102.90313 6.6132814 102.73633 6.6132812 z M 107.26367 6.6132812 C 107.09687 6.6132812 106.92902 6.6764419 106.80273 6.8027344 C 106.55014 7.0553186 106.55014 7.4700713 106.80273 7.7226562 C 107.05531 7.9752405 107.47007 7.9732863 107.72266 7.7207031 C 107.97524 7.4681182 107.97562 7.0553186 107.72266 6.8027344 C 107.59636 6.6764419 107.43047 6.6132812 107.26367 6.6132812 z M 104.9668 7.5507812 C 104.62484 7.5682012 104.34961 7.8531731 104.34961 8.1992188 C 104.34961 8.556427 104.64279 8.8496094 105 8.8496094 C 105.35721 8.8496094 105.65039 8.5564271 105.65039 8.1992188 C 105.65039 7.8420103 105.35721 7.5507813 105 7.5507812 C 104.98884 7.5507812 104.97783 7.5502193 104.9668 7.5507812 z " />
    <path
       id="path76-1-2"
       style="display:inline;fill:#000000;stroke:none;stroke-width:2;stroke-linecap:round;stroke-linejoin:round;stroke-dasharray:none;stroke-opacity:1;paint-order:markers stroke fill"
       d="M 325 1 A 1 1 0 0 0 324 2 A 1 1 0 0 0 325 3 A 1 1 0 0 0 326 2 A 1 1 0 0 0 325 1 z M 325 5 A 0.5 0.5 0 0 0 324.5 5.5 A 0.5 0.5 0 0 0 325 6 A 0.5 0.5 0 0 0 325.5 5.5 A 0.5 0.5 0 0 0 325 5 z M 325 7.4003906 A 0.80000001 0.80000001 0 0 0 324.19922 8.1992188 A 0.80000001 0.80000001 0 0 0 325 9 A 0.80000001 0.80000001 0 0 0 325.80078 8.1992188 A 0.80000001 0.80000001 0 0 0 325 7.4003906 z " />
    <path
       id="path77-9-8"
       style="display:inline;stroke-width:2;stroke-linecap:round;stroke-linejoin:round;paint-order:markers stroke fill"
       d="m 248,5 a 3,3 0 0 1 -3,3 3,3 0 0 1 -3,-3 3,3 0 0 1 3,-3 3,3 0 0 1 3,3 z" />
    <path
       style="stroke-linecap:round;stroke-linejoin:round;paint-order:markers stroke fill"
       d="m 265,2 c -1.65212,0 -3,1.3478837 -3,3 0,1.6521163 1.34788,3 3,3 1.65212,0 3,-1.3478837 3,-3 0,-1.6521163 -1.34788,-3 -3,-3 z m 0,0.8007813 c 1.21976,0 2.19922,0.9794545 2.19922,2.1992187 0,1.2197642 -0.97946,2.1992188 -2.19922,2.1992187 -1.21976,0 -2.19922,-0.9794545 -2.19922,-2.1992187 0,-1.2197642 0.97946,-2.1992187 2.19922,-2.1992187 z"
       id="path77-5-4-9" />
    <path
       id="path77-3-8-3"
       style="display:inline;fill:#000000;stroke:none;stroke-width:0.5;stroke-linecap:round;stroke-linejoin:round;stroke-dasharray:none;stroke-opacity:1;paint-order:markers stroke fill"
       d="M 145 1.5 A 3.5 3.5 0 0 0 141.5 5 A 3.5 3.5 0 0 0 145 8.5 A 3.5 3.5 0 0 0 148.5 5 A 3.5 3.5 0 0 0 145 1.5 z M 145 2.25 C 146.51582 2.25 147.75 3.4841781 147.75 5 C 147.75 6.5158219 146.51582 7.75 145 7.75 C 143.48418 7.75 142.25 6.5158219 142.25 5 C 142.25 3.4841781 143.48418 2.25 145 2.25 z M 145 2.75 C 143.7544 2.75 142.75 3.7543982 142.75 5 C 142.75 6.2456018 143.7544 7.25 145 7.25 C 146.2456 7.25 147.25 6.2456018 147.25 5 C 147.25 3.7543982 146.2456 2.75 145 2.75 z M 144 4.1992188 A 0.30000001 0.30000001 0 0 1 144.30078 4.5 L 144.30078 5.5 A 0.30000001 0.30000001 0 0 1 144 5.8007812 A 0.30000001 0.30000001 0 0 1 143.69922 5.5 L 143.69922 4.5 A 0.30000001 0.30000001 0 0 1 144 4.1992188 z M 146 4.1992188 A 0.30000001 0.30000001 0 0 1 146.30078 4.5 L 146.30078 5.5 A 0.30000001 0.30000001 0 0 1 146 5.8007812 A 0.30000001 0.30000001 0 0 1 145.69922 5.5 L 145.69922 4.5 A 0.30000001 0.30000001 0 0 1 146 4.1992188 z " />
    <g
       id="path226-0-1" />
    <g
       id="path227-5-1">
      <path
         id="path134"
         style="stroke-linecap:round;stroke-linejoin:round;paint-order:markers stroke fill"
         d="m 161.7,5 h 0.9 m -0.90078,-0.25 a 0.25,0.25 0 0 0 -0.25,0.25 0.25,0.25 0 0 0 0.25,0.25 h 0.90039 a 0.25,0.25 0 0 0 0.25,-0.25 0.25,0.25 0 0 0 -0.25,-0.25 z M 165,0.55078125 c -2.45471,0 -4.44922,1.99451285 -4.44922,4.44921875 0,2.4547059 1.99451,4.4492188 4.44922,4.4492188 2.45471,0 4.44922,-1.9945129 4.44922,-4.4492188 0,-2.4547059 -1.99451,-4.44921875 -4.44922,-4.44921875 z m 0,0.49999995 c 2.18449,2e-7 3.94922,1.764733 3.94922,3.9492188 0,2.1844858 -1.76473,3.9492188 -3.94922,3.9492188 -2.18449,0 -3.94922,-1.764733 -3.94922,-3.9492188 0,-2.1844858 1.76473,-3.9492188 3.94922,-3.9492188 z M 165,3.25 c -0.96354,0 -1.75,0.7864628 -1.75,1.75 0,0.9635372 0.78646,1.75 1.75,1.75 0.96354,0 1.75,-0.7864628 1.75,-1.75 0,-0.9635372 -0.78646,-1.75 -1.75,-1.75 z m 0,0.5 c 0.69332,0 1.25,0.5566829 1.25,1.25 0,0.6933171 -0.55668,1.25 -1.25,1.25 -0.69332,0 -1.25,-0.5566829 -1.25,-1.25 0,-0.6933171 0.55668,-1.25 1.25,-1.25 z M 167.4,5 h 0.9 m -0.89961,-0.25 a 0.25,0.25 0 0 0 -0.25,0.25 0.25,0.25 0 0 0 0.25,0.25 h 0.90039 a 0.25,0.25 0 0 0 0.25,-0.25 0.25,0.25 0 0 0 -0.25,-0.25 z" />
    </g>
    <path
       id="path232-9-1"
       style="display:inline;stroke-width:0.5;stroke-linecap:round;stroke-linejoin:round;paint-order:markers stroke fill"
       d="M 125 1.8007812 A 3.2 3.2 0 0 0 121.80078 5 A 3.2 3.2 0 0 0 125 8.1992188 A 3.2 3.2 0 0 0 128.19922 5 A 3.2 3.2 0 0 0 125 1.8007812 z M 123.59961 4.0996094 A 0.40000001 0.40000001 0 0 1 124 4.5 L 124 5.5 A 0.40000001 0.40000001 0 0 1 123.59961 5.9003906 A 0.40000001 0.40000001 0 0 1 123.19922 5.5 L 123.19922 4.5 A 0.40000001 0.40000001 0 0 1 123.59961 4.0996094 z M 126.40039 4.0996094 A 0.40000001 0.40000001 0 0 1 126.80078 4.5 L 126.80078 5.5 A 0.40000001 0.40000001 0 0 1 126.40039 5.9003906 A 0.40000001 0.40000001 0 0 1 126 5.5 L 126 4.5 A 0.40000001 0.40000001 0 0 1 126.40039 4.0996094 z " />
    <path
       id="circle237-1-5"
       style="display:inline;stroke-width:2;stroke-linecap:round;stroke-linejoin:round;paint-order:markers stroke fill"
       d="M 285 2 A 3 3 0 0 0 282 5 A 3 3 0 0 0 285 8 A 3 3 0 0 0 288 5 A 3 3 0 0 0 285 2 z M 285 2.9003906 A 1.2 1.2 0 0 1 286.19922 4.0996094 A 1.2 1.2 0 0 1 285 5.3007812 A 1.2 1.2 0 0 1 283.80078 4.0996094 A 1.2 1.2 0 0 1 285 2.9003906 z M 285 6 A 0.60000002 0.60000002 0 0 1 285.59961 6.5996094 A 0.60000002 0.60000002 0 0 1 285 7.1992188 A 0.60000002 0.60000002 0 0 1 284.40039 6.5996094 A 0.60000002 0.60000002 0 0 1 285 6 z " />
    <path
       id="path9-9-8"
       style="display:inline;fill:#000000;stroke:none;stroke-width:0.5;stroke-linecap:round;stroke-linejoin:round;stroke-dasharray:none;paint-order:markers stroke fill"
       d="m 64.041016,0.97070312 c -0.08342,-0.008678 -0.167461,0.009087 -0.240235,0.0507813 -0.939049,0.5421604 -1.399783,1.6518452 -1.11914,2.6992187 0.03866,0.1442985 0.08956,0.2828283 0.152343,0.4140625 C 62.301461,4.6904583 62.002881,5.4295649 62,6.1992188 c 0,1.6568542 1.343146,3 3,3 1.656854,0 3,-1.3431458 3,-3 -8.52e-4,-0.7714107 -0.298825,-1.5128479 -0.832031,-2.0703126 0.06161,-0.1296148 0.11226,-0.2658969 0.15039,-0.4082031 0.280643,-1.0473735 -0.180091,-2.1570583 -1.11914,-2.6992187 -0.191004,-0.10943379 -0.434533,-0.0439689 -0.544922,0.1464844 -0.110761,0.1914399 -0.04514,0.4364307 0.146484,0.546875 0.628823,0.3630509 0.93207,1.0974676 0.744141,1.7988281 -0.0089,0.033275 -0.02038,0.065388 -0.03125,0.097656 C 66.054598,3.3421324 65.532179,3.1998995 65,3.1992188 c -0.532055,0.0028 -1.053793,0.1470561 -1.511719,0.4179687 -0.01165,-0.034135 -0.02375,-0.068248 -0.0332,-0.1035156 -0.187929,-0.7013605 0.115318,-1.4357772 0.744141,-1.7988281 0.191623,-0.1104443 0.257245,-0.3554351 0.146484,-0.546875 -0.06417,-0.110703 -0.177419,-0.18402781 -0.304687,-0.19726568 z"
       sodipodi:nodetypes="scsccsccscccscccsccs" />
    <path
       id="path239-9-6"
       style="display:inline;fill:#000000;fill-opacity:1;stroke:none;stroke-width:0.5;stroke-linecap:round;stroke-linejoin:round;stroke-dasharray:none;stroke-opacity:1;paint-order:markers stroke fill"
       d="M 345 1 A 1.5 1.5 0 0 0 343.5 2.5 A 1.5 1.5 0 0 0 345 4 A 1.5 1.5 0 0 0 346.5 2.5 A 1.5 1.5 0 0 0 345 1 z M 342.41211 5.4824219 A 1.5 1.5 0 0 0 340.91211 6.9824219 A 1.5 1.5 0 0 0 342.41211 8.4824219 A 1.5 1.5 0 0 0 343.91211 6.9824219 A 1.5 1.5 0 0 0 342.41211 5.4824219 z M 347.58789 5.4824219 A 1.5 1.5 0 0 0 346.08789 6.9824219 A 1.5 1.5 0 0 0 347.58789 8.4824219 A 1.5 1.5 0 0 0 349.08789 6.9824219 A 1.5 1.5 0 0 0 347.58789 5.4824219 z " />
    <path
       id="path25-1"
       style="display:inline;stroke-width:0.6;stroke-linecap:round;stroke-linejoin:round;paint-order:fill markers stroke"
       d="M 225 0.90039062 C 222.73919 0.90039062 220.90039 2.7391859 220.90039 5 C 220.90039 7.2608141 222.73919 9.0996094 225 9.0996094 C 227.26081 9.0996094 229.09961 7.2608141 229.09961 5 C 229.09961 2.7391859 227.26081 0.90039062 225 0.90039062 z M 225 1.5 C 226.93655 1.5 228.5 3.06345 228.5 5 C 228.5 6.93655 226.93655 8.5 225 8.5 C 223.06345 8.5 221.5 6.93655 221.5 5 C 221.5 3.06345 223.06345 1.5 225 1.5 z M 225 2 C 223.3467 2 222 3.3466991 222 5 C 222 6.6533009 223.3467 8 225 8 C 226.6533 8 228 6.6533009 228 5 C 228 3.3466991 226.6533 2 225 2 z M 225 2.5996094 C 226.32904 2.5996094 227.40039 3.6709632 227.40039 5 C 227.40039 6.3290368 226.32904 7.4003906 225 7.4003906 C 223.67096 7.4003906 222.59961 6.3290368 222.59961 5 C 222.59961 3.6709632 223.67096 2.5996094 225 2.5996094 z M 225 3.0996094 C 223.95421 3.0996094 223.09961 3.9542123 223.09961 5 C 223.09961 6.0457877 223.95421 6.9003906 225 6.9003906 C 226.04579 6.9003906 226.90039 6.0457877 226.90039 5 C 226.90039 3.9542123 226.04579 3.0996094 225 3.0996094 z M 225 3.6992188 C 225.72152 3.6992188 226.30078 4.2784764 226.30078 5 C 226.30078 5.7215236 225.72152 6.3007814 225 6.3007812 C 224.27848 6.3007812 223.69922 5.7215236 223.69922 5 C 223.69922 4.2784764 224.27848 3.6992188 225 3.6992188 z M 225 4.1992188 A 0.80000001 0.80000001 0 0 0 224.19922 5 A 0.80000001 0.80000001 0 0 0 225 5.8007812 A 0.80000001 0.80000001 0 0 0 225.80078 5 A 0.80000001 0.80000001 0 0 0 225 4.1992188 z " />
    <path
       id="circle28-0"
       style="display:inline;stroke-width:0.6;stroke-linecap:round;stroke-linejoin:round;paint-order:fill markers stroke"
       d="M 205 0.90039062 C 202.73919 0.90039062 200.90039 2.7391859 200.90039 5 C 200.90039 7.2608141 202.73919 9.0996094 205 9.0996094 C 207.26081 9.0996094 209.09961 7.2608141 209.09961 5 C 209.09961 2.7391859 207.26081 0.90039061 205 0.90039062 z M 205 1.5 C 206.93655 1.5 208.5 3.06345 208.5 5 C 208.5 6.93655 206.93655 8.5 205 8.5 C 203.06345 8.5 201.5 6.93655 201.5 5 C 201.5 3.06345 203.06345 1.5 205 1.5 z M 205 4.1992188 A 0.80000001 0.80000001 0 0 0 204.19922 5 A 0.80000001 0.80000001 0 0 0 205 5.8007812 A 0.80000001 0.80000001 0 0 0 205.80078 5 A 0.80000001 0.80000001 0 0 0 205 4.1992188 z " />
    <path
       id="path31-9"
       style="display:inline;fill:#000000;stroke:none;stroke-width:0.6;stroke-linecap:round;stroke-linejoin:round;stroke-dasharray:none;paint-order:fill markers stroke"
       d="M 305 1 A 4 4 0 0 0 301 5 A 4 4 0 0 0 305 9 A 4 4 0 0 0 309 5 A 4 4 0 0 0 305 1 z M 306.5 2.5 A 1 1 0 0 1 307.5 3.5 A 1 1 0 0 1 306.5 4.5 A 1 1 0 0 1 305.5 3.5 A 1 1 0 0 1 306.5 2.5 z M 304 5 A 1 1 0 0 1 305 6 A 1 1 0 0 1 304 7 A 1 1 0 0 1 303 6 A 1 1 0 0 1 304 5 z " />
    <path
       id="path43-4"
       style="display:inline;fill:#000000;stroke:none;stroke-width:0.3;stroke-linecap:round;stroke-linejoin:round;stroke-dasharray:none;paint-order:fill markers stroke"
       d="M 85 1 A 4 4 0 0 0 81 5 A 4 4 0 0 0 85 9 A 4 4 0 0 0 89 5 A 4 4 0 0 0 85 1 z M 85.0625 3.5039062 A 0.60000002 0.60000002 0 0 1 85.662109 4.1035156 A 0.60000002 0.60000002 0 0 1 85.0625 4.703125 A 0.60000002 0.60000002 0 0 1 84.462891 4.1035156 A 0.60000002 0.60000002 0 0 1 85.0625 3.5039062 z M 82.453125 3.578125 A 0.40000001 0.40000001 0 0 1 82.853516 3.9785156 A 0.40000001 0.40000001 0 0 1 82.453125 4.3789062 A 0.40000001 0.40000001 0 0 1 82.052734 3.9785156 A 0.40000001 0.40000001 0 0 1 82.453125 3.578125 z M 86.96875 3.703125 A 0.69999999 0.69999999 0 0 1 87.667969 4.4023438 A 0.69999999 0.69999999 0 0 1 86.96875 5.1035156 A 0.69999999 0.69999999 0 0 1 86.269531 4.4023438 A 0.69999999 0.69999999 0 0 1 86.96875 3.703125 z M 83.65625 3.921875 A 0.30000001 0.30000001 0 0 1 83.957031 4.2226562 A 0.30000001 0.30000001 0 0 1 83.65625 4.5214844 A 0.30000001 0.30000001 0 0 1 83.355469 4.2226562 A 0.30000001 0.30000001 0 0 1 83.65625 3.921875 z M 82.359375 4.984375 A 0.5 0.5 0 0 1 82.859375 5.484375 A 0.5 0.5 0 0 1 82.359375 5.984375 A 0.5 0.5 0 0 1 81.859375 5.484375 A 0.5 0.5 0 0 1 82.359375 4.984375 z M 84.199219 5 A 0.80000001 0.80000001 0 0 1 85 5.8007812 A 0.80000001 0.80000001 0 0 1 84.199219 6.5996094 A 0.80000001 0.80000001 0 0 1 83.400391 5.8007812 A 0.80000001 0.80000001 0 0 1 84.199219 5 z M 88.037109 5.125 A 0.40000001 0.40000001 0 0 1 88.4375 5.5253906 A 0.40000001 0.40000001 0 0 1 88.037109 5.9257812 A 0.40000001 0.40000001 0 0 1 87.636719 5.5253906 A 0.40000001 0.40000001 0 0 1 88.037109 5.125 z M 85.875 5.21875 A 0.40000001 0.40000001 0 0 1 86.275391 5.6191406 A 0.40000001 0.40000001 0 0 1 85.875 6.0195312 A 0.40000001 0.40000001 0 0 1 85.474609 5.6191406 A 0.40000001 0.40000001 0 0 1 85.875 5.21875 z M 86.8125 6.1972656 A 0.69999999 0.69999999 0 0 1 87.511719 6.8964844 A 0.69999999 0.69999999 0 0 1 86.8125 7.5976562 A 0.69999999 0.69999999 0 0 1 86.113281 6.8964844 A 0.69999999 0.69999999 0 0 1 86.8125 6.1972656 z M 83.074219 6.5996094 A 0.40000001 0.40000001 0 0 1 83.474609 7 A 0.40000001 0.40000001 0 0 1 83.074219 7.4003906 A 0.40000001 0.40000001 0 0 1 82.673828 7 A 0.40000001 0.40000001 0 0 1 83.074219 6.5996094 z M 84.900391 7 A 0.60000002 0.60000002 0 0 1 85.5 7.5996094 A 0.60000002 0.60000002 0 0 1 84.900391 8.1992188 A 0.60000002 0.60000002 0 0 1 84.300781 7.5996094 A 0.60000002 0.60000002 0 0 1 84.900391 7 z " />
    <path
       id="path9-9-6-8"
       style="display:inline;fill:#000000;stroke:none;stroke-width:0.8;stroke-linecap:round;stroke-linejoin:round;stroke-dasharray:none;paint-order:markers stroke fill"
       d="M 404.04102 1.2714844 A 0.40000001 0.40000001 0 0 0 403.80078 1.3222656 C 402.86173 1.8644261 402.401 2.9741108 402.68164 4.0214844 C 402.68693 4.0412246 402.69346 4.0605648 402.69922 4.0800781 A 3 3 0 0 0 402 6 A 3 3 0 0 0 405 9 A 3 3 0 0 0 408 6 A 3 3 0 0 0 407.30273 4.078125 C 407.30825 4.059371 407.31328 4.0404476 407.31836 4.0214844 C 407.599 2.9741109 407.13827 1.8644261 406.19922 1.3222656 A 0.40000001 0.40000001 0 0 0 405.6543 1.46875 A 0.40000001 0.40000001 0 0 0 405.80078 2.0136719 C 406.32498 2.3163186 406.62189 2.8779333 406.59766 3.4628906 A 3 3 0 0 0 405 3 A 3 3 0 0 0 403.40234 3.4628906 C 403.37811 2.8779333 403.67502 2.3163186 404.19922 2.0136719 A 0.40000001 0.40000001 0 0 0 404.3457 1.46875 A 0.40000001 0.40000001 0 0 0 404.04102 1.2714844 z " />
    <path
       id="path76-1-9-7"
       style="display:inline;fill:#000000;stroke:none;stroke-width:2;stroke-linecap:round;stroke-linejoin:round;stroke-dasharray:none;stroke-opacity:1;paint-order:markers stroke fill"
       d="M 185 1 A 3 3 0 0 0 182 4 A 3 3 0 0 0 183.72461 6.7128906 A 1.5 1.5 0 0 0 183.5 7.5 A 1.5 1.5 0 0 0 185 9 A 1.5 1.5 0 0 0 186.5 7.5 A 1.5 1.5 0 0 0 186.27734 6.7109375 A 3 3 0 0 0 188 4 A 3 3 0 0 0 185 1 z " />
    <path
       id="circle54-9"
       style="display:inline;fill:#000000;stroke:none;stroke-width:0.5;stroke-linecap:round;stroke-linejoin:round;stroke-dasharray:none;paint-order:markers stroke fill"
       d="m 45,0.69921875 c -1.320746,0 -2.400391,1.07964505 -2.400391,2.40039065 0,0.3693112 0.08583,0.7199283 0.236329,1.0332031 C 42.302236,4.6886868 42.002907,5.4286182 42,6.1992188 c 0,1.6568542 1.343146,3 3,3 1.656854,0 3,-1.3431458 3,-3 C 47.999651,5.4271326 47.701641,4.684906 47.167969,4.1269531 47.316613,3.8152551 47.400391,3.4664894 47.400391,3.0996094 47.400391,1.7788638 46.320746,0.69921875 45,0.69921875 Z M 45,1.5 c 0.888393,0 1.599609,0.7112159 1.599609,1.5996094 0,0.1794795 -0.03033,0.3511057 -0.08398,0.5117187 C 46.05598,3.3417979 45.532842,3.1995529 45,3.1992188 44.467282,3.2016756 43.944826,3.3459409 43.486328,3.6171875 43.431436,3.4549325 43.400391,3.2812398 43.400391,3.0996094 43.400391,2.2112159 44.111607,1.5 45,1.5 Z"
       sodipodi:nodetypes="ssccsccsssscccss" />
    <path
       style="stroke-linecap:round;stroke-linejoin:round;paint-order:fill markers stroke"
       d="m 545,1 c -2.20203,0 -4,1.7979677 -4,4 0,2.2020323 1.79797,4 4,4 2.20203,0 4,-1.7979677 4,-4 0,-2.2020323 -1.79797,-4 -4,-4 z m 0,1.1992188 c 1.5535,0 2.80078,1.2472771 2.80078,2.8007812 0,1.5535041 -1.24728,2.8007812 -2.80078,2.8007812 -1.5535,0 -2.80078,-1.2472771 -2.80078,-2.8007812 0,-1.5535041 1.24728,-2.8007812 2.80078,-2.8007812 z"
       id="path56-0" />
    <path
       style="stroke-linecap:round;stroke-linejoin:round;paint-order:fill markers stroke"
       d="m 605,1 c -1.67953,0 -3.18338,1.0545695 -3.75781,2.6328125 -0.57444,1.5782431 -0.0991,3.3520588 1.1875,4.4316406 a 0.60000002,0.60000002 0 0 0 0.84375,-0.074219 0.60000002,0.60000002 0 0 0 -0.0742,-0.8457032 c -0.9033,-0.7579609 -1.23338,-1.9934976 -0.83008,-3.1015625 0.4033,-1.1080648 1.45168,-1.84375 2.63086,-1.8437499 A 0.60000002,0.60000002 0 0 0 605.59961,1.5996094 0.60000002,0.60000002 0 0 0 605,1 Z"
       id="path58-2" />
    <path
       style="stroke-linecap:round;stroke-linejoin:round;paint-order:fill markers stroke"
       d="m 625,1 c -0.70212,0 -1.39195,0.1840982 -2,0.5351562 a 0.60000002,0.60000002 0 0 0 -0.21875,0.8203126 0.60000002,0.60000002 0 0 0 0.81836,0.21875 c 0.42568,-0.2457667 0.90886,-0.3750001 1.40039,-0.375 A 0.60000002,0.60000002 0 0 0 625.59961,1.5996094 0.60000002,0.60000002 0 0 0 625,1 Z"
       id="circle60-7" />
    <path
       style="stroke-linecap:round;stroke-linejoin:round;paint-order:fill markers stroke"
       d="m 585,1 c -2.02462,0 -3.73761,1.5242219 -3.97266,3.5351562 -0.23504,2.0109344 1.08073,3.8905114 3.05078,4.3574219 1.97006,0.4669105 3.98918,-0.6228662 4.68165,-2.5253906 a 0.60000002,0.60000002 0 0 0 -0.35938,-0.7675781 0.60000002,0.60000002 0 0 0 -0.76953,0.3574218 c -0.48756,1.3395476 -1.89025,2.096325 -3.27734,1.7675782 -1.3871,-0.3287468 -2.30026,-1.6329502 -2.13477,-3.0488282 C 582.38424,3.2599033 583.57448,2.1992188 585,2.1992188 A 0.60000002,0.60000002 0 0 0 585.59961,1.5996094 0.60000002,0.60000002 0 0 0 585,1 Z"
       id="path60-61" />
    <path
       style="stroke-linecap:round;stroke-linejoin:round;paint-order:fill markers stroke"
       d="m 565,1 c -2.00269,0 -3.70344,1.49296 -3.96484,3.4785156 -0.26141,1.9855556 0.99523,3.8664316 2.92968,4.3847657 1.93445,0.518334 3.96408,-0.481788 4.73047,-2.3320313 0.7664,-1.8502433 0.0391,-3.9947492 -1.69531,-4.9960938 a 0.60000002,0.60000002 0 0 0 -0.82031,0.2207032 0.60000002,0.60000002 0 0 0 0.2207,0.8183594 c 1.22089,0.7048814 1.72504,2.1955958 1.18555,3.4980468 -0.5395,1.3024511 -1.94882,1.997686 -3.31055,1.6328125 C 562.91366,7.3402046 562.0406,6.0324678 562.22461,4.6347656 562.40862,3.2370635 563.59024,2.1992188 565,2.1992188 A 0.60000002,0.60000002 0 0 0 565.59961,1.5996094 0.60000002,0.60000002 0 0 0 565,1 Z"
       id="circle61-3" />
    <path
       id="path56-17-2"
       style="stroke-linecap:round;stroke-linejoin:round;paint-order:fill markers stroke"
       d="M 445 1 C 442.79441 1 441 2.7944144 441 5 C 441 7.2055856 442.79441 9 445 9 C 447.20559 9 449 7.2055856 449 5 C 449 2.7944144 447.20559 1 445 1 z M 445 1.5996094 C 446.88132 1.5996094 448.40039 3.1186784 448.40039 5 C 448.40039 6.8813216 446.88132 8.4003906 445 8.4003906 C 443.11868 8.4003906 441.59961 6.8813216 441.59961 5 C 441.59961 3.1186784 443.11868 1.5996094 445 1.5996094 z M 445 2.1992188 C 443.46071 2.1992188 442.19922 3.4607094 442.19922 5 C 442.19922 6.5392906 443.46071 7.8007812 445 7.8007812 C 446.53929 7.8007812 447.80078 6.5392906 447.80078 5 C 447.80078 3.4607094 446.53929 2.1992188 445 2.1992188 z M 445 3.4003906 C 445.89076 3.4003906 446.59961 4.1092376 446.59961 5 C 446.59961 5.8907624 445.89076 6.5996094 445 6.5996094 C 444.10924 6.5996094 443.40039 5.8907624 443.40039 5 C 443.40039 4.1092376 444.10924 3.4003906 445 3.4003906 z " />
    <path
       id="path58-5-1"
       style="stroke-linecap:round;stroke-linejoin:round;paint-order:fill markers stroke"
       d="M 505 1 C 502.79441 1 501 2.7944144 501 5 C 501 7.2055856 502.79441 9 505 9 C 507.20559 9 509 7.2055856 509 5 C 509 2.7944144 507.20559 1 505 1 z M 505 1.5996094 C 506.88132 1.5996094 508.40039 3.1186784 508.40039 5 C 508.40039 6.8813216 506.88132 8.4003906 505 8.4003906 C 503.11868 8.4003906 501.59961 6.8813216 501.59961 5 C 501.59961 3.1186784 503.11868 1.5996094 505 1.5996094 z M 505 2.3007812 C 503.86664 2.3007812 502.85052 3.0111647 502.46289 4.0761719 C 502.07526 5.1411791 502.39549 6.3398516 503.26367 7.0683594 A 0.5 0.5 0 0 0 503.96875 7.0058594 A 0.5 0.5 0 0 0 503.9082 6.3027344 C 503.35936 5.8422439 503.15732 5.0911608 503.40234 4.4179688 C 503.64737 3.7447767 504.2836 3.3007812 505 3.3007812 A 0.5 0.5 0 0 0 505.5 2.8007812 A 0.5 0.5 0 0 0 505 2.3007812 z " />
    <path
       id="circle60-9-5"
       style="stroke-linecap:round;stroke-linejoin:round;paint-order:fill markers stroke"
       d="M 525 1 C 522.79441 1 521 2.7944144 521 5 C 521 7.2055856 522.79441 9 525 9 C 527.20559 9 529 7.2055856 529 5 C 529 2.7944144 527.20559 1 525 1 z M 525 1.5996094 C 526.88132 1.5996094 528.40039 3.1186784 528.40039 5 C 528.40039 6.8813216 526.88132 8.4003906 525 8.4003906 C 523.11868 8.4003906 521.59961 6.8813216 521.59961 5 C 521.59961 3.1186784 523.11868 1.5996094 525 1.5996094 z M 525 2.3007812 C 524.52608 2.3007812 524.06082 2.4251476 523.65039 2.6621094 A 0.5 0.5 0 0 0 523.4668 3.3457031 A 0.5 0.5 0 0 0 524.15039 3.5273438 C 524.40885 3.3781248 524.70156 3.3007812 525 3.3007812 A 0.5 0.5 0 0 0 525.5 2.8007812 A 0.5 0.5 0 0 0 525 2.3007812 z " />
    <path
       id="path60-6-9"
       style="stroke-linecap:round;stroke-linejoin:round;paint-order:fill markers stroke"
       d="M 485 1 C 482.79441 1 481 2.7944144 481 5 C 481 7.2055856 482.79441 9 485 9 C 487.20559 9 489 7.2055856 489 5 C 489 2.7944144 487.20559 1 485 1 z M 485 1.5996094 C 486.88132 1.5996094 488.40039 3.1186784 488.40039 5 C 488.40039 6.8813216 486.88132 8.4003906 485 8.4003906 C 483.11868 8.4003906 481.59961 6.8813216 481.59961 5 C 481.59961 3.1186784 483.11868 1.5996094 485 1.5996094 z M 485 2.3007812 C 483.63415 2.3007812 482.47692 3.3308853 482.31836 4.6875 C 482.15979 6.0441147 483.04792 7.3119664 484.37695 7.6269531 C 485.70599 7.9419399 487.06996 7.2073074 487.53711 5.9238281 A 0.5 0.5 0 0 0 487.23828 5.2832031 A 0.5 0.5 0 0 0 486.59766 5.5820312 C 486.30126 6.3963633 485.45066 6.8541472 484.60742 6.6542969 C 483.76419 6.4544465 483.21189 5.6634688 483.3125 4.8027344 C 483.41311 3.942 484.13341 3.3007812 485 3.3007812 A 0.5 0.5 0 0 0 485.5 2.8007812 A 0.5 0.5 0 0 0 485 2.3007812 z " />
    <path
       id="circle61-2-9"
       style="stroke-linecap:round;stroke-linejoin:round;paint-order:fill markers stroke"
       d="M 465 1 C 462.79441 1 461 2.7944144 461 5 C 461 7.2055856 462.79441 9 465 9 C 467.20559 9 469 7.2055856 469 5 C 469 2.7944144 467.20559 1 465 1 z M 465 1.5996094 C 466.88132 1.5996094 468.40039 3.1186784 468.40039 5 C 468.40039 6.8813216 466.88132 8.4003906 465 8.4003906 C 463.11868 8.4003906 461.59961 6.8813216 461.59961 5 C 461.59961 3.1186784 463.11868 1.5996094 465 1.5996094 z M 464.90625 2.3007812 C 463.58688 2.3468542 462.48887 3.350537 462.32227 4.6601562 C 462.15566 5.9697756 462.96661 7.2129409 464.23242 7.5878906 C 465.49823 7.9628403 466.8581 7.3629066 467.43164 6.1738281 C 468.00518 4.9847496 467.63025 3.5462832 466.54883 2.7890625 A 0.5 0.5 0 0 0 465.85156 2.9101562 A 0.5 0.5 0 0 0 465.97461 3.6074219 C 466.66015 4.0874399 466.89483 4.9844997 466.53125 5.7382812 C 466.16767 6.492063 465.32 6.8685478 464.51758 6.6308594 C 463.71516 6.3931709 463.20884 5.6153513 463.31445 4.7851562 C 463.42007 3.9549614 464.10503 3.3299881 464.94141 3.3007812 A 0.5 0.5 0 0 0 465.42383 2.7832031 A 0.5 0.5 0 0 0 464.90625 2.3007812 z " />
    <path
       id="path56-1-8"
       style="stroke-linecap:round;stroke-linejoin:round;paint-order:fill markers stroke"
       d="M 645 0.84960938 C 642.71098 0.84960938 640.84961 2.7109794 640.84961 5 C 640.84961 7.2890206 642.71098 9.1503906 645 9.1503906 C 647.28902 9.1503906 649.15039 7.2890206 649.15039 5 C 649.15039 2.7109794 647.28902 0.84960938 645 0.84960938 z M 645 1.3496094 C 647.0188 1.3496094 648.65039 2.9811995 648.65039 5 C 648.65039 7.0188005 647.0188 8.6503906 645 8.6503906 C 642.9812 8.6503906 641.34961 7.0188005 641.34961 5 C 641.34961 2.9811995 642.9812 1.3496094 645 1.3496094 z M 645 1.9003906 C 643.29384 1.9003906 641.90039 3.2938396 641.90039 5 C 641.90039 6.7061604 643.29384 8.0996094 645 8.0996094 C 646.70616 8.0996094 648.09961 6.7061604 648.09961 5 C 648.09961 3.2938396 646.70616 1.9003906 645 1.9003906 z M 645 2.9003906 C 646.16572 2.9003906 647.09961 3.8342798 647.09961 5 C 647.09961 6.1657202 646.16572 7.0996094 645 7.0996094 C 643.83428 7.0996094 642.90039 6.1657202 642.90039 5 C 642.90039 3.8342798 643.83428 2.9003906 645 2.9003906 z M 645 3.5 A 1.5 1.5 0 0 0 643.5 5 A 1.5 1.5 0 0 0 645 6.5 A 1.5 1.5 0 0 0 646.5 5 A 1.5 1.5 0 0 0 645 3.5 z " />
    <path
       id="path78-04"
       style="display:inline;fill:#000000;stroke:none;stroke-width:0.6;stroke-linecap:round;stroke-linejoin:round;stroke-dasharray:none;paint-order:fill markers stroke"
       d="M 665 1.5 A 3.5 3.5 0 0 0 661.5 5 A 3.5 3.5 0 0 0 661.68555 6.0996094 L 668.31445 6.0996094 A 3.5 3.5 0 0 0 668.5 5 A 3.5 3.5 0 0 0 665 1.5 z M 665 2.6992188 A 0.80000001 0.80000001 0 0 1 665.80078 3.5 A 0.80000001 0.80000001 0 0 1 665 4.3007812 A 0.80000001 0.80000001 0 0 1 664.19922 3.5 A 0.80000001 0.80000001 0 0 1 665 2.6992188 z M 662.06055 6.9003906 A 3.5 3.5 0 0 0 665 8.5 A 3.5 3.5 0 0 0 667.93945 6.9003906 L 662.06055 6.9003906 z " />
    <path
       id="circle82-6"
       style="display:inline;fill:#000000;stroke:none;stroke-width:0.6;stroke-linecap:round;stroke-linejoin:round;stroke-dasharray:none;paint-order:fill markers stroke"
       d="M 685 1.5 A 3.5 3.5 0 0 0 681.5 5 A 3.5 3.5 0 0 0 681.68555 6.0996094 L 688.31445 6.0996094 A 3.5 3.5 0 0 0 688.5 5 A 3.5 3.5 0 0 0 685 1.5 z M 684 2.5 A 0.25 0.25 0 0 1 684.17773 2.5722656 L 685 3.3945312 L 685.82227 2.5722656 A 0.25 0.25 0 0 1 686 2.5 A 0.25 0.25 0 0 1 686.17773 2.5722656 A 0.25 0.25 0 0 1 686.17773 2.9277344 L 685.35547 3.75 L 686.17773 4.5722656 A 0.25 0.25 0 0 1 686.17773 4.9277344 A 0.25 0.25 0 0 1 685.82227 4.9277344 L 685 4.1054688 L 684.17773 4.9277344 A 0.25 0.25 0 0 1 683.82227 4.9277344 A 0.25 0.25 0 0 1 683.82227 4.5722656 L 684.64453 3.75 L 683.82227 2.9277344 A 0.25 0.25 0 0 1 683.82227 2.5722656 A 0.25 0.25 0 0 1 684 2.5 z M 682.06055 6.9003906 A 3.5 3.5 0 0 0 685 8.5 A 3.5 3.5 0 0 0 687.93945 6.9003906 L 682.06055 6.9003906 z " />
    <path
       id="path9-2-2"
       style="display:inline;fill:#000000;stroke:none;stroke-width:0.8;stroke-linecap:round;stroke-linejoin:round;stroke-dasharray:none;paint-order:markers stroke fill"
       d="M 23.400391 1 C 22.079645 1 21 2.0796451 21 3.4003906 C 21 4.5910826 21.877023 5.5851737 23.017578 5.7695312 A 3 3 0 0 0 23 6 A 3 3 0 0 0 26 9 A 3 3 0 0 0 29 6 A 3 3 0 0 0 26 3 A 3 3 0 0 0 25.769531 3.0175781 C 25.585174 1.877023 24.591082 1 23.400391 1 z M 23.400391 1.8007812 C 24.215 1.8007813 24.881381 2.3993471 24.986328 3.1835938 A 3 3 0 0 0 23.183594 4.9863281 C 22.399347 4.8813809 21.800781 4.2150009 21.800781 3.4003906 C 21.800781 2.5119972 22.511997 1.8007813 23.400391 1.8007812 z " />
    <path
       id="path91"
       style="stroke-linecap:round;stroke-linejoin:round;paint-order:markers stroke fill"
       d="M 3.4003906 1 C 2.0796451 1 1 2.0796451 1 3.4003906 C 1 4.5884205 1.8729372 5.5819734 3.0097656 5.7695312 C 3.0039498 5.8455297 3 5.922557 3 6 C 3 7.6521163 4.3478837 9 6 9 C 7.6521163 9 9 7.6521163 9 6 C 9 4.3478837 7.6521163 3 6 3 C 5.922557 3 5.8455297 3.0039498 5.7695312 3.0097656 C 5.5819734 1.8729372 4.5884205 1 3.4003906 1 z M 6 3.8007812 C 7.2197642 3.8007812 8.1992188 4.7802358 8.1992188 6 C 8.1992188 7.2197642 7.2197642 8.1992188 6 8.1992188 C 4.7802358 8.1992188 3.8007813 7.2197642 3.8007812 6 C 3.8007812 4.7802358 4.7802358 3.8007812 6 3.8007812 z " />
    <path
       id="path78-0-5"
       style="display:inline;fill:#000000;stroke:none;stroke-width:0.6;stroke-linecap:round;stroke-linejoin:round;stroke-dasharray:none;paint-order:fill markers stroke"
       d="M 425 2 A 2.5 2.5 0 0 0 422.5 4.5 A 2.5 2.5 0 0 0 425 7 A 2.5 2.5 0 0 0 427.5 4.5 A 2.5 2.5 0 0 0 425 2 z M 425 3.3007812 A 0.5 0.5 0 0 1 425.5 3.8007812 A 0.5 0.5 0 0 1 425 4.3007812 A 0.5 0.5 0 0 1 424.5 3.8007812 A 0.5 0.5 0 0 1 425 3.3007812 z M 422.69922 6.9003906 A 0.80000001 0.80000001 0 0 0 421.90039 7.6992188 A 0.80000001 0.80000001 0 0 0 422.69922 8.5 A 0.80000001 0.80000001 0 0 0 423.5 7.6992188 A 0.80000001 0.80000001 0 0 0 422.69922 6.9003906 z M 427.30078 6.9003906 A 0.80000001 0.80000001 0 0 0 426.5 7.6992188 A 0.80000001 0.80000001 0 0 0 427.30078 8.5 A 0.80000001 0.80000001 0 0 0 428.09961 7.6992188 A 0.80000001 0.80000001 0 0 0 427.30078 6.9003906 z " />
  </g>
</svg>
